<?xml version="1.0" encoding="UTF-8" standalone="no"?>
<svg width="503px" height="257px" viewBox="0 0 503 257" version="1.1" xmlns="http://www.w3.org/2000/svg" xmlns:xlink="http://www.w3.org/1999/xlink">
    <!-- Generator: Sketch 47.1 (45422) - http://www.bohemiancoding.com/sketch -->
    <title>Logo</title>
    <desc>Created with Sketch.</desc>
    <defs>
        <ellipse id="path-1" cx="126.5" cy="112.5" rx="125.5" ry="112.5"></ellipse>
        <linearGradient x1="50%" y1="0%" x2="50%" y2="100%" id="linearGradient-3">
            <stop stop-color="#9F5E9F" offset="0%"></stop>
            <stop stop-color="#A260A3" offset="100%"></stop>
        </linearGradient>
    </defs>
    <g id="Page-1" stroke="none" stroke-width="1" fill="none" fill-rule="evenodd">
        <g id="Logo" transform="translate(-3.000000, 0.000000)">
            <g id="Planet" transform="translate(124.000000, 0.000000)">
                <ellipse id="Oval-8" fill="#570258" cx="125" cy="112.5" rx="125" ry="112.5"></ellipse>
                <mask id="mask-2" fill="white">
                    <use xlink:href="#path-1"></use>
                </mask>
                <use id="Mask" fill="#D79BD8" opacity="0.810000002" xlink:href="#path-1"></use>
                <path d="M-17,54 C47.2737977,47.2661402 95.7092919,43.8992103 128.306482,43.8992103 C160.903673,43.8992103 210.134846,47.2661402 276,54 L276,183 C210.666527,189.983917 161.833194,193.475875 129.5,193.475875 C97.1668063,193.475875 48.3334729,189.983917 -17,183 L-17,54 Z" id="Rectangle-16" fill="#B171B2" mask="url(#mask-2)"></path>
                <path d="M1,68 C56.9399932,56.6666667 99.0120135,51 127.216061,51 C155.420108,51 195.681421,56.6666667 248,68" id="Line-3" stroke="#C683C7" stroke-width="8" stroke-linecap="round" mask="url(#mask-2)"></path>
                <path d="M1,165 C56.9399932,153.666667 99.0120135,148 127.216061,148 C155.420108,148 195.681421,153.666667 248,165" id="Line-3" stroke="#A96CAA" stroke-width="8" stroke-linecap="round" mask="url(#mask-2)" transform="translate(124.500000, 156.500000) scale(1, -1) translate(-124.500000, -156.500000) "></path>
                <path d="M-11,157 C35.8333333,170.424225 82.6666667,177.136337 129.5,177.136337 C176.333333,177.136337 223.166667,170.424225 270,157 L270,253 L-11,253 L-11,157 Z" id="Rectangle-17" fill="url(#linearGradient-3)" mask="url(#mask-2)"></path>
            </g>
            <g id="Cows-in-space" transform="translate(0.000000, 78.000000)">
                <text id="COws-in-space" font-family="Phosphate-Solid, Phosphate" font-size="72" font-weight="normal" fill="#58B5D2">
                    <tspan x="5" y="68">COws in space</tspan>
                </text>
                <g id="Lines" transform="translate(4.000000, 53.000000)" stroke="#EBDDDD" stroke-width="3" stroke-linecap="round">
                    <path d="M0.5,12.5 L114.5,41.5" id="Line-2"></path>
                    <path d="M383.5,12.5 L500.5,42.5" id="Line-2" transform="translate(442.000000, 27.500000) scale(1, -1) translate(-442.000000, -27.500000) "></path>
                    <path d="M0.5,12.5 C84.4977783,4.33643268 167.831112,0.254649017 250.5,0.254649017 C333.168888,0.254649017 416.502222,4.33643268 500.5,12.5" id="Line"></path>
                    <path d="M32.1991335,19.8769292 C109.680531,10.8771928 184.134189,6.37732451 255.560108,6.37732451 C326.986028,6.37732451 399.17721,10.8771928 472.133655,19.8769292" id="Line"></path>
                </g>
                <text id="no-one-can-hear-them" font-family="Copperplate" font-size="20" font-weight="normal" fill="#E7DA67">
                    <tspan x="114" y="178">no one can hear them moo</tspan>
                </text>
            </g>
        </g>
    </g>
</svg>