<?xml version="1.0" encoding="utf-8"?>
<!-- Generator: Adobe Illustrator 20.0.0, SVG Export Plug-In . SVG Version: 6.00 Build 0)  -->
<svg version="1.1" xmlns="http://www.w3.org/2000/svg" xmlns:xlink="http://www.w3.org/1999/xlink" x="0px" y="0px"
	 viewBox="0 0 211.3 112.2" style="enable-background:new 0 0 211.3 112.2;" xml:space="preserve">
<style type="text/css">
	.st0{fill:none;stroke:#FAFAFA;stroke-miterlimit:10;}
	.st1{fill:#FAFAF8;}
</style>
<g id="line">
	<path class="st0" d="M123.3,0.8c-48.3,0-87.5,24.6-87.5,55c0,2.2,0.2,4.4,0.6,6.5c-1.8,0.6-5.9,7-6.9,8.2c-3.9,4.8-7.8,9.6-12,14.2
		c-5.1,5.7-10.6,11.2-16,16.6c13.5-1.7,26.7-5.4,39.8-9.2l11.9-3.4c16,13.4,41.4,22,70,22c48.3,0,87.5-24.6,87.5-55
		S171.6,0.8,123.3,0.8z"/>
</g>
<g id="fill">
	<path class="st1" d="M123.8,0.7c-48.3,0-87.5,24.6-87.5,55l0,0.1c0-0.1-0.1-0.2-0.1-0.3c-0.1,1-0.2,2,0,3c0.1,0.5,0.2,1,0.3,1.6
		c0,0.8-0.3,1.7-0.6,2.4c-1.5,2.9-4.5,4.9-5.6,8c-1.4,1.8-2.8,3.6-4.3,5.2c-1,1.1-2,2.1-3,3.1c-1.1,1.1-2.2,2.3-3.2,3.4
		c-4.1,4.3-8.2,8.6-12.3,12.8c-1.1,1.1-2.2,2.3-3.1,3.6c-0.6,0.9-1,1.9-1.9,2.5c2.5,0.2,5.1,0.3,7.4-0.5c1.4-0.5,2.7-1.3,4.1-1.4
		c1.5-0.1,3-0.8,4.4-1c3-0.4,5.9-1.3,8.8-2c4.2-1,8.4-2.3,12.6-3.6c4.5-1.4,9.1-2.8,13.6-4.2c0-0.1-0.1-0.2-0.1-0.2
		c15.9,13.5,41.5,22.3,70.4,22.3c48.3,0,87.5-24.6,87.5-55S172.1,0.7,123.8,0.7z"/>
</g>
</svg>
